<?xml version="1.0" encoding="UTF-8" standalone="no"?>
<!DOCTYPE svg PUBLIC "-//W3C//DTD SVG 1.1//EN" "http://www.w3.org/Graphics/SVG/1.1/DTD/svg11.dtd">
<svg version="1.1" xmlns="http://www.w3.org/2000/svg" xmlns:xlink="http://www.w3.org/1999/xlink" preserveAspectRatio="xMidYMid meet" viewBox="0 0 130 130" width="130" height="130"><defs><path d="M21.52 31.59C23.62 34.85 24.34 34.98 32.91 33.86C37.91 33.2 42.67 32.22 43.44 31.55C44.76 30.39 44.75 30.07 43.39 27.41C41.61 23.81 39.45 23.74 35.09 27.09C30.73 30.44 23.33 30.72 20.91 27.46C19.92 26.23 19.11 25.78 19.14 26.74C19.16 27.53 20.19 29.72 21.52 31.59Z" id="cZxSAOuBK"></path><path d="M27.26 41.95C15.68 44.72 15.43 44.72 12.83 42.09C9.22 38.45 9.14 41.36 12.66 47.79C14.43 51 15.68 52.16 16.61 51.58C19.54 49.54 31.88 44.72 38.84 42.82C42.62 41.8 42.79 43.12 39.93 54.5C36.91 66.17 30.96 80.03 24.16 90.97C20.05 97.69 18.87 100.17 20.47 99.15C26.09 95.35 35.57 80.18 40.1 67.63C41.28 64.42 43.63 58.14 45.39 53.62C48.32 46.03 48.49 45.3 47.32 42.39C45.56 37.86 43.54 36.4 41.11 37.86C39.93 38.59 33.72 40.34 27.26 41.95Z" id="bG9oN7T2s"></path><path d="M85.18 35.33C85.94 38.9 87.11 39.43 87.63 36.52C88.04 34.14 85.48 27.14 83.26 24.63C80.81 21.72 80.69 22.25 82.73 27.4C83.73 30.05 84.83 33.62 85.18 35.33Z" id="c5JGCDMayM"></path><path d="M79.54 37.07C80.66 41.43 81.59 42.16 82.22 39.13C82.71 36.34 81.28 31.86 78.67 28.34C75.68 24.22 75.19 24.46 76.99 29.19C77.86 31.37 78.98 35.01 79.54 37.07Z" id="d5BDuYPXp0"></path><path d="M123.5 65C123.5 97.29 97.29 123.5 65 123.5C32.71 123.5 6.5 97.29 6.5 65C6.5 32.71 32.71 6.5 65 6.5C97.29 6.5 123.5 32.71 123.5 65Z" id="baKuGXLt"></path><path d="M63.39 37.61C67.22 43.11 68.68 43.24 68.25 38.09C67.93 34.32 63.8 29.73 59.39 28.2C54.9 26.55 54.4 26.97 57.23 29.77C58.65 31.17 61.4 34.74 63.39 37.61Z" id="a4fVrX3DeG"></path><path d="M95.02 30.33C95.02 36.59 87.01 84.32 84.96 90.42C84.16 92.77 81.18 90.42 79.99 86.67C79.19 84.32 79.13 84.32 79.13 86.83C79.13 90.58 81.64 100.28 82.64 100.28C84.03 100.28 97.21 94.02 102.44 90.89C105.22 89.17 107.94 87.76 108.47 87.76C109.06 87.76 109.86 90.58 110.45 94.34C111.51 102.01 112.9 102.95 113.83 96.84C114.3 93.56 114.23 91.21 113.37 87.14C112.24 81.5 103.7 58.97 103.1 60.22C102.97 60.69 104.23 66.17 105.88 72.43C108.67 82.6 108.86 84.01 107.8 84.95C106.08 86.51 87.6 91.05 87.14 90.11C86.94 89.64 87.14 87.92 87.47 86.51C87.87 85.1 90.78 71.96 93.96 57.56C100.32 28.76 100.32 28.61 95.88 24.07C93.04 21.25 92.64 21.41 93.9 24.85C94.56 26.41 95.02 28.92 95.02 30.33Z" id="h8ES2r2D"></path><path d="M67.09 70.8C49.98 91.84 48.16 93.22 44.75 89.21C43.62 87.83 42.86 87.55 42.86 88.52C42.86 91.01 46.95 100.83 48.08 100.83C49.3 100.83 57.32 91.42 65.19 80.77C73.97 68.87 85.48 48.11 84.42 46.17C84.27 46.03 81.92 49.49 79.2 53.92C76.47 58.35 71.02 65.96 67.09 70.8Z" id="avvk2k7W"></path><path d="M59.04 49.48C61.85 55.01 64 55.42 64 50.56C64 46.1 60.55 41.78 55.31 39.62C55.1 39.53 54.05 39.13 52.15 38.4L54.3 41.24C56.51 44.84 58.09 47.58 59.04 49.48Z" id="a10OiGJpDL"></path></defs><g><g><g><use xlink:href="#cZxSAOuBK" opacity="1" fill="#ff0000" fill-opacity="1"></use><g><use xlink:href="#cZxSAOuBK" opacity="1" fill-opacity="0" stroke="#ff0000" stroke-width="1" stroke-opacity="1"></use></g></g><g><use xlink:href="#bG9oN7T2s" opacity="1" fill="#ff0000" fill-opacity="1"></use><g><use xlink:href="#bG9oN7T2s" opacity="1" fill-opacity="0" stroke="#ff0000" stroke-width="1" stroke-opacity="1"></use></g></g><g><use xlink:href="#c5JGCDMayM" opacity="1" fill="#ff0000" fill-opacity="1"></use><g><use xlink:href="#c5JGCDMayM" opacity="1" fill-opacity="0" stroke="#ff0000" stroke-width="1" stroke-opacity="1"></use></g></g><g><use xlink:href="#d5BDuYPXp0" opacity="1" fill="#ff0000" fill-opacity="1"></use><g><use xlink:href="#d5BDuYPXp0" opacity="1" fill-opacity="0" stroke="#ff0000" stroke-width="1" stroke-opacity="1"></use></g></g><g><g><use xlink:href="#baKuGXLt" opacity="1" fill-opacity="0" stroke="#ff0000" stroke-width="4" stroke-opacity="1"></use></g></g><g><use xlink:href="#a4fVrX3DeG" opacity="1" fill="#ff0000" fill-opacity="1"></use><g><use xlink:href="#a4fVrX3DeG" opacity="1" fill-opacity="0" stroke="#ff0000" stroke-width="1" stroke-opacity="1"></use></g></g><g><use xlink:href="#h8ES2r2D" opacity="1" fill="#ff0000" fill-opacity="1"></use><g><use xlink:href="#h8ES2r2D" opacity="1" fill-opacity="0" stroke="#ff0000" stroke-width="1" stroke-opacity="1"></use></g></g><g><use xlink:href="#avvk2k7W" opacity="1" fill="#ff0000" fill-opacity="1"></use><g><use xlink:href="#avvk2k7W" opacity="1" fill-opacity="0" stroke="#ff0000" stroke-width="1" stroke-opacity="1"></use></g></g><g><use xlink:href="#a10OiGJpDL" opacity="1" fill="#ff0000" fill-opacity="1"></use><g><use xlink:href="#a10OiGJpDL" opacity="1" fill-opacity="0" stroke="#ff0000" stroke-width="1" stroke-opacity="1"></use></g></g></g></g></svg>