<?xml version="1.0" encoding="UTF-8" standalone="no"?>
<!DOCTYPE svg PUBLIC "-//W3C//DTD SVG 1.1//EN" "http://www.w3.org/Graphics/SVG/1.1/DTD/svg11.dtd">
<svg version="1.1" xmlns="http://www.w3.org/2000/svg" xmlns:xlink="http://www.w3.org/1999/xlink" preserveAspectRatio="xMidYMid meet" viewBox="-0.08913695138921973 -0.7027581984733635 157.39296737477932 157.6995734612411" width="153.39" height="153.7"><defs><path d="M2.19 63.72C-2.98 93.06 7.64 120.15 31.53 138.87C52.78 155.46 85.57 158.78 110.53 146.96C131.24 137.01 148.49 115.63 152.88 94.52C155 84.43 154.73 67.44 152.21 58.02C144.91 29.61 120.75 7.04 92.21 1.86C79.73 -0.27 74.02 -0.27 62.07 2.12C31.93 8.1 7.64 32.92 2.19 63.72ZM126.59 26.15C143.45 42.08 151.28 64.92 147.7 88.15C146.37 97.18 140.93 112.84 139.07 112.84C138.8 112.84 137.48 109.39 136.41 105.28C133.36 94.26 130.31 86.29 129.24 86.29C128.71 86.29 127.12 87.09 125.79 88.15C123.27 89.88 123.27 90.28 125.66 100.1C126.99 105.54 127.65 110.72 127.25 111.38C126.06 113.24 107.21 117.36 104.68 116.43C102.83 115.77 102.56 114.57 103.36 110.59C105.08 100.63 114.91 58.94 117.3 51.11C120.48 40.76 120.48 37.7 116.9 35.31C112.65 32.26 111.06 34.52 110.13 45.54C109.6 50.71 105.75 69.43 101.37 86.82C94.2 115.5 93.67 119.08 95.13 122.67C98.31 130.24 99.51 130.5 114.11 126.25C121.28 124.26 128.58 121.87 130.17 120.94C135.48 118.16 133.36 121.87 125.53 129.44C99.51 154.13 57.69 154.53 30.87 130.37C30.38 129.93 27.95 127.71 23.57 123.73C25.64 121.42 26.79 120.14 27.02 119.88C29.01 117.89 31.93 113.51 33.53 110.19C38.44 100.37 52.11 63.86 52.11 60.41C52.11 58.68 50.78 55.63 49.06 53.77C48.86 53.53 47.84 52.33 46.01 50.18C39.71 51.14 36.22 51.67 35.52 51.78C29.68 52.71 21.44 54.43 17.2 55.76C13.08 57.09 9.63 57.62 9.63 56.95C9.63 56.29 10.56 53.63 11.49 51.11C13.21 47 14.01 46.47 18.13 46.47C24.5 46.47 42.02 43.81 44.15 42.48C45.08 41.95 45.34 40.36 44.81 38.63C43.88 35.31 41.09 35.18 28.61 37.31C23.97 38.1 19.72 38.5 19.32 38.1C17.99 36.64 29.41 24.29 36.84 19.12C47.6 11.82 63.53 6.64 76.27 6.64C81.85 6.64 89.68 7.3 93.53 8.1C104.68 10.36 117.03 17.13 126.59 26.15ZM19.72 117.76C17.46 117.09 10.43 102.09 8.57 94.26C7.64 90.54 6.97 82.71 6.97 77C6.97 76.3 6.97 72.8 6.97 66.51C10 65.72 11.68 65.27 12.02 65.18C23.7 62 38.44 58.68 41.23 58.55C44.01 58.41 44.15 58.81 43.35 63.33C40.83 78.06 23.17 118.82 19.72 117.76Z" id="a8eU7kvUT"></path><path d="M102.16 48.46C104.02 48.46 104.15 42.48 102.43 38.37C100.83 34.52 96.98 31.33 95.52 32.66C94.59 33.59 100.7 48.46 102.16 48.46Z" id="aZLT3gf0E"></path><path d="M93.53 51.78C97.38 51.78 95.26 40.62 90.61 36.51C88.36 34.52 87.96 34.38 87.29 36.11C86.36 38.37 91.81 51.78 93.53 51.78Z" id="b5K6QomGlo"></path><path d="M68.18 50.32C77.87 62.53 82.38 57.75 74.55 43.41C70.43 35.84 67.64 34.12 64.33 37.44C61.67 40.09 62.47 43.15 68.18 50.32Z" id="f2RK3aQEsH"></path><path d="M61.8 72.88C66.98 79.92 68.71 80.72 70.7 77C72.69 73.15 70.57 67.04 65.12 61.47C60.34 56.56 58.09 56.02 56.36 59.34C54.77 62.26 55.96 65.05 61.8 72.88Z" id="b7woyisns"></path><path d="M91.41 66.51C90.08 73.42 83.97 84.17 75.88 93.99C66.72 105.14 58.09 111.92 49.19 114.97C44.01 116.69 42.82 117.62 42.82 120.15C42.82 128.64 46.14 129.44 55.03 123.2C71.23 111.52 87.29 93.86 94.46 79.92C98.84 71.29 102.56 61.2 101.5 60.67C100.97 60.41 98.71 60.8 96.45 61.47C93.27 62.4 92.07 63.72 91.41 66.51Z" id="eXvVDhWO"></path></defs><g><g><use xlink:href="#a8eU7kvUT" opacity="1" fill="#ff0000" fill-opacity="1"></use><g><use xlink:href="#a8eU7kvUT" opacity="1" fill-opacity="0" stroke="#000000" stroke-width="1" stroke-opacity="0"></use></g></g><g><use xlink:href="#aZLT3gf0E" opacity="1" fill="#ff0000" fill-opacity="1"></use><g><use xlink:href="#aZLT3gf0E" opacity="1" fill-opacity="0" stroke="#000000" stroke-width="1" stroke-opacity="0"></use></g></g><g><use xlink:href="#b5K6QomGlo" opacity="1" fill="#ff0000" fill-opacity="1"></use><g><use xlink:href="#b5K6QomGlo" opacity="1" fill-opacity="0" stroke="#000000" stroke-width="1" stroke-opacity="0"></use></g></g><g><use xlink:href="#f2RK3aQEsH" opacity="1" fill="#ff0000" fill-opacity="1"></use><g><use xlink:href="#f2RK3aQEsH" opacity="1" fill-opacity="0" stroke="#000000" stroke-width="1" stroke-opacity="0"></use></g></g><g><use xlink:href="#b7woyisns" opacity="1" fill="#ff0000" fill-opacity="1"></use><g><use xlink:href="#b7woyisns" opacity="1" fill-opacity="0" stroke="#000000" stroke-width="1" stroke-opacity="0"></use></g></g><g><use xlink:href="#eXvVDhWO" opacity="1" fill="#ff0000" fill-opacity="1"></use><g><use xlink:href="#eXvVDhWO" opacity="1" fill-opacity="0" stroke="#000000" stroke-width="1" stroke-opacity="0"></use></g></g></g></svg>